<svg width="81" height="48" viewBox="0 0 81 48" fill="none" xmlns="http://www.w3.org/2000/svg">
<path fill-rule="evenodd" clip-rule="evenodd" d="M0 13.0406V21.7803L3.01952 21.7802C6.28247 21.78 6.35851 21.776 7.08879 21.5661C7.52597 21.4405 8.28059 21.0764 8.65443 20.8108C10.5472 19.4657 11.358 17.0223 10.6404 14.8263C10.4321 14.1888 10.0306 13.4642 9.59846 12.9458C9.5098 12.8394 9.43721 12.7417 9.43721 12.7287C9.43721 12.7157 9.52269 12.5628 9.62716 12.389C10.5898 10.7874 10.657 8.75911 9.80115 7.14064C9.1654 5.93839 8.02023 4.97044 6.74773 4.5597C6.00564 4.3202 6.14502 4.32917 2.94185 4.31437L0 4.30078V13.0406ZM28.7115 11.6732C28.7265 18.6301 28.7168 18.3001 28.9295 19.1006C29.2252 20.2138 29.8548 20.9774 30.8084 21.3796C31.4904 21.6672 32.2029 21.7785 33.3701 21.7796L34.1759 21.7803V19.8579V17.9355L33.6613 17.9347C33.103 17.9338 32.9252 17.8874 32.75 17.6968C32.5348 17.4628 32.5448 17.7767 32.5448 11.2508V5.23608H30.6212H28.6976L28.7115 11.6732ZM42.6034 7.71678V10.1975L42.3433 10.1031C41.1734 9.67844 39.633 9.67599 38.3897 10.0968C36.5815 10.7088 35.1014 12.2118 34.5332 14.0131C34.3037 14.7405 34.2729 14.9644 34.2742 15.8966C34.2753 16.6809 34.2837 16.7863 34.3771 17.1801C34.9469 19.5835 36.7387 21.34 39.1567 21.8653C39.6877 21.9807 40.9189 21.9913 41.4479 21.885C41.9505 21.784 42.3969 21.6468 42.8042 21.4683C43.0034 21.3809 43.1884 21.2999 43.2151 21.2883C43.2511 21.2726 43.2636 21.3331 43.2636 21.5237V21.7803H44.8365H46.4093V13.5082V5.23608H44.5064H42.6034V7.71678ZM18.6323 12.1004L18.622 17.1394L18.5368 17.3239C18.4091 17.6004 18.0989 17.9066 17.8151 18.0363C17.61 18.1301 17.5235 18.1468 17.2433 18.1468C16.9631 18.1468 16.8767 18.1301 16.6716 18.0363C16.3877 17.9066 16.0775 17.6004 15.9498 17.3239L15.8646 17.1394L15.8541 13.5567L15.8436 9.9741H13.92H11.9964L12.0115 13.6733C12.0248 16.9675 12.0337 17.4085 12.0928 17.7017C12.5365 19.906 14.2791 21.5858 16.4666 21.918C17.5182 22.0777 18.5903 21.9086 19.5541 21.431C21.0169 20.706 22.018 19.3999 22.3806 17.7428C22.4601 17.3796 22.4619 17.2728 22.4755 12.2169L22.4894 7.06138H20.566H18.6425L18.6323 12.1004ZM3.68945 9.64182V11.1392L4.24286 11.1379C4.54726 11.1372 4.91411 11.1214 5.05811 11.1029C5.58796 11.0346 6.05597 10.7097 6.27913 10.2552C6.37855 10.0527 6.38841 9.99503 6.3869 9.62457C6.38554 9.2893 6.37004 9.18351 6.29979 9.02972C6.17314 8.75247 5.82971 8.41238 5.5424 8.27964C5.30484 8.16992 5.28888 8.16802 4.4953 8.15633L3.68945 8.14445V9.64182ZM57.6117 9.83666C57.0815 9.93297 56.6684 10.0723 56.1484 10.3302C55.9833 10.412 55.8391 10.479 55.828 10.479C55.8169 10.479 55.8077 10.3654 55.8077 10.2265V9.9741H54.3514H52.895V15.8772V21.7803H54.7786H56.6621L56.6627 18.3336C56.6632 15.6042 56.6741 14.8413 56.7149 14.6676C57.0104 13.4123 58.7428 13.2023 59.3249 14.3512L59.4389 14.5762L59.4494 18.1783L59.4599 21.7803H61.3835H63.307L63.2924 18.0423C63.2782 14.4254 63.2751 14.2923 63.1966 13.9314C62.9622 12.8541 62.5219 12.0009 61.8285 11.2804C60.8646 10.2789 59.684 9.77343 58.3321 9.78357C58.0864 9.78543 57.7622 9.80932 57.6117 9.83666ZM69.3483 9.83821C67.5997 10.1237 66.1414 11.0538 65.1773 12.4985C64.2416 13.9006 63.935 15.69 64.3493 17.3304C64.6388 18.4769 65.1292 19.3364 65.9814 20.1908C67.0963 21.3089 68.4305 21.8993 69.984 21.9623C70.8551 21.9976 71.6524 21.8718 72.3743 21.585C72.534 21.5216 72.6754 21.4696 72.6885 21.4696C72.7495 21.4696 72.6615 21.9431 72.563 22.1441C72.2913 22.699 71.6704 23.0211 70.8699 23.0225C70.2516 23.0236 69.7177 22.8832 68.9436 22.516L68.4674 22.2901L68.3951 22.4333C68.3553 22.512 68.0306 23.1862 67.6734 23.9313L67.0239 25.2861L67.1345 25.3781C67.1953 25.4286 67.3608 25.5485 67.5023 25.6444C69.0167 26.6709 71.1277 26.9836 72.8475 26.4363C74.668 25.8568 75.8469 24.4847 76.2639 22.46C76.3214 22.1809 76.3292 21.5299 76.3411 16.0617L76.3545 9.9741H74.7416H73.1287V10.2265C73.1287 10.3654 73.1221 10.479 73.1141 10.479C73.1061 10.479 72.9694 10.4197 72.8103 10.3472C72.4061 10.1629 71.8801 9.98727 71.4529 9.89379C70.9664 9.78738 69.8418 9.75767 69.3483 9.83821ZM23.6901 15.8772V21.7803H25.5543H27.4184V15.8772V9.9741H25.5543H23.6901V15.8772ZM47.8463 15.8772V21.7803H49.7299H51.6134V15.8772V9.9741H49.7299H47.8463V15.8772ZM69.7966 13.6644C68.9974 13.8738 68.3849 14.4836 68.1787 15.2751C68.1022 15.569 68.1018 16.1437 68.1779 16.4419C68.3374 17.0665 68.8025 17.642 69.3616 17.9066C70.0178 18.2173 70.7237 18.2107 71.3811 17.8878C71.9069 17.6296 72.3726 17.0343 72.5303 16.4189C72.6255 16.0472 72.5907 15.4007 72.4568 15.0529C72.0413 13.974 70.8963 13.3763 69.7966 13.6644ZM40.0537 13.665C39.3713 13.7866 38.7639 14.2343 38.4368 14.8568C37.9019 15.8748 38.2207 17.0779 39.1988 17.7321C39.9109 18.2083 40.7565 18.2364 41.516 17.8089C41.9904 17.5418 42.4385 16.9472 42.5807 16.3959C42.9182 15.0875 41.9161 13.7401 40.537 13.6482C40.3812 13.6378 40.1637 13.6454 40.0537 13.665ZM3.68945 16.4426V17.9401L4.74871 17.9281L5.808 17.9161L6.06351 17.7902C6.37129 17.6386 6.64407 17.3607 6.78936 17.0508C6.87934 16.8588 6.89344 16.7788 6.89344 16.4598C6.89344 16.1371 6.87981 16.0616 6.7847 15.8578C6.57257 15.4031 6.12568 15.0669 5.62563 14.9858C5.4899 14.9637 4.99873 14.9456 4.53414 14.9455L3.68945 14.9451V16.4426ZM0.0179424 22.8775C0.00780609 22.9042 0.00400014 26.8407 0.00947605 31.6253L0.0194181 40.3246L5.05842 40.3345L10.0974 40.3443V38.4218V36.4993H6.97111H3.84479V34.8876V33.2759H6.75751H9.67023V31.5865V29.8971H6.75751H3.84479V28.2854V26.6737H6.97111H10.0974V24.7513V22.8289H5.06693C1.07821 22.8289 0.0325836 22.839 0.0179424 22.8775ZM36.7974 23.5527C35.8286 23.7012 34.9978 24.5781 34.9248 25.5292C34.8581 26.3986 35.3173 27.2199 36.0848 27.6041C36.4772 27.8005 36.7412 27.8527 37.2241 27.8294C37.703 27.8062 38.0218 27.7054 38.3799 27.4637C38.9518 27.0778 39.2622 26.4517 39.2624 25.6834C39.2625 25.5125 39.2372 25.2773 39.2062 25.1608C39.0126 24.4333 38.4357 23.8411 37.7142 23.6292C37.4932 23.5643 36.9937 23.5226 36.7974 23.5527ZM16.3889 28.3265C16.3355 28.3357 16.1695 28.3627 16.02 28.3866C15.6196 28.4504 15.0612 28.6383 14.6316 28.8536L14.2529 29.0434V28.7712V28.499H12.7966H11.3402V34.4215V40.3441H13.2226H15.105L15.1159 36.7808L15.1267 33.2176L15.2491 32.9593C15.5281 32.3706 16.1198 32.054 16.7525 32.1552C17.1995 32.2266 17.5394 32.4654 17.7518 32.857L17.8841 33.1011L17.9035 36.7129L17.9229 40.3246H19.8259H21.7289V36.6158C21.7289 33.2177 21.7231 32.8776 21.6598 32.5574C21.4332 31.4106 20.9675 30.5153 20.1949 29.7408C19.4871 29.0314 18.6679 28.5851 17.7317 28.3991C17.4533 28.3438 16.5671 28.2959 16.3889 28.3265ZM52.6757 28.3446C50.0771 28.6183 47.902 30.5631 47.3399 33.1155C46.9857 34.7232 47.3089 36.4044 48.242 37.8085C48.5921 38.3354 49.3415 39.0963 49.8464 39.4377C51.0238 40.2338 52.3586 40.5955 53.7494 40.4951C54.8279 40.4174 55.7854 40.082 56.7414 39.4474C57.2183 39.1309 57.9945 38.3576 58.3246 37.8703C60.2569 35.0178 59.5236 31.256 56.6605 29.3331C55.5009 28.5544 54.0652 28.1982 52.6757 28.3446ZM65.3084 28.3461C64.7332 28.426 64.0761 28.6404 63.5847 28.9087L63.342 29.0412V28.7701V28.499H61.8662H60.3904V34.4215V40.3441H62.2926H64.1948L64.2053 36.742L64.2158 33.1399L64.3305 32.9133C64.8577 31.872 66.3756 31.8847 66.8603 32.9345L66.9732 33.1788L66.9836 36.7614L66.9941 40.3441H68.8963H70.7985L70.7983 36.7032C70.7981 33.7282 70.7878 32.9948 70.742 32.6933C70.4138 30.5322 68.9142 28.874 66.8761 28.4187C66.4847 28.3313 65.6829 28.2942 65.3084 28.3461ZM75.4006 28.332C74.8795 28.3793 74.1725 28.5773 73.7307 28.7997C72.5225 29.4077 71.8071 30.5564 71.8088 31.8858C71.8105 33.2221 72.4803 34.2986 73.7991 35.0846C73.9809 35.193 74.538 35.462 75.037 35.6823C76.3219 36.2498 76.5075 36.3706 76.5075 36.6407C76.5075 36.9426 76.3635 37.0246 75.8472 37.0167C75.2554 37.0075 74.2912 36.727 73.4596 36.3219C73.2678 36.2285 73.0999 36.1647 73.0866 36.18C73.0732 36.1954 72.7534 36.8536 72.3758 37.6426C71.5834 39.2986 71.6055 39.0769 72.1966 39.4351C73.2401 40.0674 74.3039 40.4187 75.4035 40.4942C77.8658 40.6633 79.7811 39.4994 80.3201 37.5064C80.4394 37.0656 80.4487 36.1212 80.338 35.7031C80.1695 35.0666 79.8189 34.4799 79.3032 33.9713C78.7032 33.3794 77.984 32.9597 76.7987 32.5098C75.8512 32.15 75.662 32.0544 75.5869 31.897C75.5356 31.7894 75.533 31.747 75.5721 31.6527C75.7237 31.2866 76.403 31.3727 77.5081 31.898C77.7543 32.015 77.9684 32.1108 77.9838 32.1108C78.0097 32.1108 79.5101 29.5844 79.5574 29.4612C79.5726 29.4214 79.4188 29.3294 79.0042 29.1302C77.6771 28.4928 76.5004 28.2321 75.4006 28.332ZM22.2892 28.586C22.3666 28.7836 27.0029 40.0269 27.07 40.1796L27.1427 40.3452L28.393 40.3349L29.6434 40.3246L32.065 34.4472C33.3969 31.2145 34.4866 28.5536 34.4866 28.534C34.4866 28.5126 33.6962 28.5023 32.5176 28.5084L30.5487 28.5184L29.4868 31.1395C28.9028 32.5811 28.4122 33.7734 28.3965 33.7891C28.3809 33.8047 27.885 32.6252 27.2946 31.168L26.2212 28.5184L24.238 28.5084L22.2549 28.4983L22.2892 28.586ZM35.2245 34.4215V40.3441H37.0886H38.9528V34.4215V28.499H37.0886H35.2245V34.4215ZM40.2344 34.4219V40.3448L42.1277 40.3347L44.0209 40.3246L44.0403 36.7323L44.0598 33.1399L44.1745 32.9133C44.3213 32.6234 44.6326 32.337 44.924 32.2237C45.1266 32.145 45.2321 32.1354 46.0695 32.1194L46.9919 32.1019V30.2964V28.4909L45.7783 28.5105C44.4851 28.5313 44.3141 28.552 43.7848 28.7512C43.6381 28.8064 43.4434 28.8933 43.352 28.9444L43.1859 29.0372V28.7681V28.499H41.7102H40.2344V34.4219ZM52.8173 32.2102C51.7391 32.4426 50.961 33.4831 51.0482 34.5757C51.1047 35.283 51.4625 35.9014 52.0358 36.2825C52.8207 36.8043 53.8091 36.8 54.5851 36.2714C55.3817 35.7288 55.7453 34.7025 55.4714 33.7697C55.3076 33.2117 54.847 32.6619 54.3302 32.4076C53.8358 32.1643 53.3341 32.0988 52.8173 32.2102Z" fill="#030303"/>
<path fill-rule="evenodd" clip-rule="evenodd" d="M30.3417 0.0494693C29.7542 0.191804 29.1444 0.68918 28.8835 1.23879C28.6573 1.71527 28.6109 2.09971 28.7184 2.60684C28.8801 3.37009 29.4564 3.98024 30.234 4.21155C30.5344 4.30092 31.1143 4.30158 31.453 4.21295C32.2233 4.01135 32.7897 3.41933 32.954 2.64408C33.1181 1.8693 32.9163 1.16986 32.3739 0.6338C32.2223 0.483892 32.0077 0.313129 31.8972 0.254292C31.4615 0.0224004 30.8083 -0.0636219 30.3417 0.0494693ZM19.7288 1.6802C18.9812 1.88751 18.3818 2.47425 18.1588 3.21707C18.0751 3.49572 18.075 4.06001 18.1586 4.34332C18.3738 5.07236 18.9186 5.61746 19.6485 5.83417C19.9242 5.916 20.5529 5.91681 20.8658 5.83576C21.6008 5.64527 22.1592 5.09003 22.3492 4.36072C22.4278 4.05897 22.4264 3.44745 22.3466 3.1756C22.1319 2.44477 21.5442 1.87936 20.797 1.68471C20.5249 1.61383 19.9765 1.6115 19.7288 1.6802ZM25.2204 4.69235C24.4402 4.80827 23.7316 5.39066 23.448 6.14921C23.3224 6.48499 23.3248 7.16536 23.4528 7.5279C23.6408 8.06011 24.0119 8.48257 24.5144 8.73621C24.8844 8.92298 25.1654 8.97766 25.6319 8.95362C26.221 8.92325 26.6126 8.77349 26.9905 8.43399C27.4508 8.02054 27.6672 7.5086 27.6691 6.82885C27.6707 6.21049 27.5112 5.80706 27.0874 5.35777C26.6126 4.85453 25.8819 4.59405 25.2204 4.69235ZM13.6148 4.83002C13.2594 4.92754 12.9255 5.12681 12.641 5.41124C12.1922 5.85984 11.9874 6.34646 11.9931 6.95064C12.0021 7.90131 12.6174 8.70266 13.5512 8.97991C13.8269 9.06174 14.4556 9.06255 14.7685 8.9815C15.5035 8.79101 16.0619 8.23577 16.2519 7.50646C16.3305 7.2047 16.3291 6.59319 16.2493 6.32133C16.0346 5.59051 15.4469 5.02509 14.6997 4.83045C14.4213 4.75794 13.8783 4.75771 13.6148 4.83002ZM49.1715 5.06482C48.4687 5.25384 47.8275 5.86501 47.6088 6.5542C47.5134 6.8551 47.4973 7.32719 47.5717 7.64441C47.7915 8.58164 48.5818 9.24213 49.5551 9.30182C50.3431 9.35017 51.0997 9.00671 51.4888 8.42405C52.4784 6.94201 51.4429 4.99461 49.6716 5.00669C49.5114 5.00777 49.2864 5.03391 49.1715 5.06482ZM16.9909 41.9555C15.4932 42.2336 14.4037 43.6184 14.5 45.1214C14.5288 45.5717 14.6027 45.8602 14.7934 46.2671C15.1487 47.0254 15.8386 47.6147 16.6802 47.8786C17.0219 47.9858 17.7015 48.0249 18.0794 47.9591C18.2261 47.9336 18.4785 47.8616 18.6403 47.7992C18.9436 47.6822 19.5253 47.327 19.5595 47.2378C19.5805 47.1832 19.3169 46.7914 19.2593 46.7914C19.2399 46.7914 19.1396 46.8521 19.0363 46.9263C18.7956 47.0992 18.4135 47.2769 18.1187 47.353C17.8477 47.4229 17.2958 47.4311 17.0025 47.3695C16.4919 47.2623 15.9063 46.888 15.5845 46.4633C14.8221 45.457 14.9142 44.1122 15.8069 43.2148C16.6797 42.3373 17.9726 42.247 19.0312 42.9896C19.1652 43.0835 19.2784 43.1385 19.296 43.1182C19.4192 42.975 19.5735 42.7537 19.5735 42.7202C19.5735 42.6484 18.9185 42.2413 18.6102 42.1213C18.0674 41.9102 17.5309 41.8552 16.9909 41.9555ZM0 44.9429V47.9565H0.291272H0.582544V46.636V45.3156H0.96648H1.35038L2.11999 46.636L2.88961 47.9565H3.21324C3.51927 47.9565 3.53468 47.9525 3.49728 47.8826C3.47554 47.8419 3.12477 47.2542 2.71776 46.5765C2.3108 45.8988 1.98282 45.3403 1.98892 45.3354C1.99506 45.3305 2.10357 45.2945 2.23006 45.2554C3.57189 44.8404 3.84355 43.0309 2.6806 42.2543C2.2774 41.985 2.17312 41.9657 1.01945 41.9464L0 41.9293V44.9429ZM7.4954 44.9466V47.9565H9.01002H10.5246V47.6652V47.3739H9.30129H8.07794V46.2865V45.1991H9.22361H10.3693V44.9466V44.6942H9.22361H8.07794V43.6068V42.5194H9.30129H10.5246V42.2281V41.9368H9.01002H7.4954V44.9466ZM23.7193 41.9589C23.7032 41.9753 23.6901 43.3314 23.6901 44.9726V47.9565H23.9809H24.2716L24.2819 46.6457L24.2921 45.335L24.669 45.3239C25.0405 45.313 25.0468 45.3143 25.1143 45.4174C25.152 45.4749 25.4999 46.0654 25.8873 46.7295L26.5918 47.937L26.9128 47.9484C27.1628 47.9572 27.2295 47.9487 27.2143 47.9095C27.2035 47.882 26.8541 47.2886 26.4377 46.5909L25.6806 45.3223L25.8601 45.2772C26.3137 45.1631 26.7637 44.796 26.9674 44.3738C27.4024 43.472 26.9508 42.3953 25.9905 42.0452C25.7919 41.9728 25.6589 41.9622 24.7581 41.9467C24.2028 41.9371 23.7353 41.9426 23.7193 41.9589ZM31.0854 41.9889C31.0745 42.0175 31.0706 43.053 31.0769 44.29L31.0884 46.5389L31.1818 46.772C31.349 47.1891 31.5632 47.4638 31.893 47.6841C33.0417 48.4511 34.5809 47.7472 34.7609 46.3725C34.7844 46.1931 34.7957 45.2468 34.789 44.0146L34.7779 41.9563L34.4978 41.9449L34.2177 41.9335L34.2059 44.178C34.195 46.247 34.1885 46.4369 34.1226 46.6083C34.0175 46.8817 33.7222 47.185 33.4359 47.3135C33.2257 47.4078 33.1604 47.4188 32.8809 47.4065C32.3604 47.3836 31.9893 47.1403 31.7738 46.6806L31.671 46.4613L31.6601 44.1991L31.6492 41.9368H31.3773C31.1858 41.9368 31.0995 41.9522 31.0854 41.9889ZM38.9026 41.9611C38.8875 41.9763 38.8751 43.3314 38.8751 44.9726V47.9565H39.1666H39.4581L39.4482 44.9564L39.4382 41.9563L39.1842 41.945C39.0444 41.9387 38.9177 41.946 38.9026 41.9611ZM43.419 42.2277V42.5194H44.1568H44.8947V45.2379V47.9565H45.186H45.4773V45.2379V42.5194H46.2169H46.9565L46.9451 42.2378L46.9336 41.9563L45.1763 41.9462L43.419 41.9361V42.2277ZM50.9031 41.961C50.8879 41.9762 50.8755 43.3314 50.8755 44.9726V47.9565H51.1668H51.4581V45.6392C51.4581 44.3648 51.4679 43.3319 51.48 43.3439C51.492 43.356 51.9897 44.3507 52.5859 45.5544L53.6699 47.7429L53.8371 47.7544L54.0042 47.7659L55.0967 45.5601L56.1892 43.3544L56.1927 45.6554L56.1961 47.9565H56.4874H56.7786V44.9466V41.9368H56.5435H56.3083L56.2167 42.1407C56.1663 42.2529 55.6101 43.3835 54.9809 44.6533L53.8368 46.9619L52.6683 44.595C52.0257 43.2932 51.4686 42.1669 51.4304 42.0922C51.3651 41.9644 51.3481 41.9556 51.1458 41.9448C51.0275 41.9386 50.9183 41.9458 50.9031 41.961ZM60.9604 41.9623C60.946 41.9768 60.9341 43.3314 60.9341 44.9726V47.9565H62.4681H64.0022V47.6652V47.3739H62.7594H61.5167V46.2865V45.1991H62.6817H63.8468V44.9466V44.6942H62.6817H61.5167V43.6068V42.5194H62.7611H64.0056L63.9942 42.2378L63.9828 41.9563L62.4848 41.9461C61.6609 41.9405 60.9749 41.9478 60.9604 41.9623ZM68.1188 44.9466V47.9565H68.3904H68.662L68.672 45.4841L68.682 43.0119L70.4257 45.4841L72.1694 47.9565H72.3968H72.6243L72.6144 44.9564L72.6044 41.9563L72.3231 41.9448L72.0419 41.9335L72.0318 44.4055L72.0219 46.8775L70.2783 44.4072L68.5347 41.9368H68.3268H68.1188V44.9466ZM76.5726 41.9624C76.5581 41.9768 76.5463 42.1077 76.5463 42.2532V42.5177L77.2939 42.5282L78.0415 42.5388L78.0515 45.2476L78.0615 47.9565H78.3328H78.6041L78.6141 45.2476L78.624 42.5388L79.3733 42.5282L80.1226 42.5177L80.1112 42.237L80.0998 41.9563L78.3493 41.9462C77.3866 41.9406 76.587 41.9479 76.5726 41.9624ZM0.582544 43.6462V44.7804L1.29131 44.7629C2.05506 44.744 2.12799 44.7276 2.43243 44.5063C2.53892 44.4289 2.63364 44.3081 2.714 44.1474C3.00775 43.5595 2.7571 42.8763 2.14912 42.6078C2.03191 42.556 1.84857 42.5388 1.29131 42.527L0.582544 42.512V43.6462ZM24.2727 43.6456V44.7793L24.9814 44.765C25.6187 44.7522 25.7098 44.7418 25.8844 44.6622C26.5851 44.3429 26.775 43.4746 26.2677 42.9104C25.9827 42.5933 25.8172 42.544 24.9814 42.5266L24.2727 42.512V43.6456Z" fill="#EA3323"/>
</svg>
